<svg width="72" height="72" viewBox="0 0 72 72" fill="none" xmlns="http://www.w3.org/2000/svg">
<rect width="72" height="72" fill="white"/>
<path d="M46.667 12.4707L46.667 10.7207H46.667V12.4707ZM60 27.7734L61.75 27.7735V27.7734H60ZM55.8115 38.9082L54.5263 37.7205C54.4797 37.7709 54.4361 37.824 54.3957 37.8796L55.8115 38.9082ZM47.1436 48.54L48.3707 49.7877L48.3707 49.7876L47.1436 48.54ZM35.2393 59.4707L33.8223 60.4978C34.1234 60.9131 34.5914 61.1754 35.1028 61.2154C35.6141 61.2554 36.1173 61.069 36.4792 60.7056L35.2393 59.4707ZM35 59.1406L36.4169 58.1136C36.0878 57.6595 35.5609 57.3906 35 57.3906C34.4391 57.3906 33.9122 57.6595 33.5831 58.1136L35 59.1406ZM34.7607 59.4707L33.5208 60.7056C33.8827 61.069 34.3859 61.2554 34.8972 61.2154C35.4086 61.1754 35.8766 60.9131 36.1777 60.4978L34.7607 59.4707ZM22.8564 48.54L21.6293 49.7876L21.6293 49.7877L22.8564 48.54ZM14.1885 38.9082L15.6043 37.8796C15.5639 37.824 15.5203 37.7709 15.4737 37.7205L14.1885 38.9082ZM10 27.7734H8.25V27.7735L10 27.7734ZM23.333 12.4707V10.7207H23.333L23.333 12.4707ZM31.585 15.7529L30.4104 17.0502C30.4461 17.0825 30.4832 17.1134 30.5214 17.1427L31.585 15.7529ZM35 19.6533L33.5295 20.6021C33.8518 21.1016 34.4056 21.4033 35 21.4033C35.5944 21.4033 36.1482 21.1016 36.4705 20.6021L35 19.6533ZM38.415 15.7529L39.4786 17.1427C39.5168 17.1134 39.5539 17.0825 39.5896 17.0502L38.415 15.7529ZM46.667 12.4707L46.667 14.2207C52.8455 14.2209 58.25 20.0546 58.25 27.7734H60H61.75C61.75 18.59 55.2158 10.7209 46.667 10.7207L46.667 12.4707ZM60 27.7734L58.25 27.7734C58.2499 31.7369 56.7955 35.2649 54.5263 37.7205L55.8115 38.9082L57.0968 40.0959C59.9844 36.9711 61.7499 32.5864 61.75 27.7735L60 27.7734ZM55.8115 38.9082L54.3957 37.8796C52.7967 40.0805 51.1846 42.1104 45.9164 47.2924L47.1436 48.54L48.3707 49.7876C53.7346 44.5116 55.4848 42.3352 57.2273 39.9368L55.8115 38.9082ZM47.1436 48.54L45.9164 47.2924C42.759 50.3981 40.124 52.7906 38.1188 54.5666C36.1686 56.2939 34.6854 57.5469 33.9993 58.2358L35.2393 59.4707L36.4792 60.7056C37.0633 60.1191 38.3474 59.0395 40.4394 57.1866C42.4764 55.3825 45.1585 52.9473 48.3707 49.7877L47.1436 48.54ZM35.2393 59.4707L36.6562 58.4436L36.4169 58.1136L35 59.1406L33.5831 60.1677L33.8223 60.4978L35.2393 59.4707ZM35 59.1406L33.5831 58.1136L33.3438 58.4436L34.7607 59.4707L36.1777 60.4978L36.4169 60.1677L35 59.1406ZM34.7607 59.4707L36.0007 58.2358C35.3146 57.5469 33.8314 56.2939 31.8812 54.5666C29.876 52.7906 27.241 50.3981 24.0836 47.2924L22.8564 48.54L21.6293 49.7877C24.8415 52.9473 27.5236 55.3825 29.5606 57.1866C31.6526 59.0395 32.9367 60.1191 33.5208 60.7056L34.7607 59.4707ZM22.8564 48.54L24.0836 47.2924C18.8154 42.1104 17.2033 40.0805 15.6043 37.8796L14.1885 38.9082L12.7727 39.9368C14.5152 42.3352 16.2654 44.5116 21.6293 49.7876L22.8564 48.54ZM14.1885 38.9082L15.4737 37.7205C13.2045 35.2649 11.7501 31.7369 11.75 27.7734L10 27.7734L8.25 27.7735C8.25012 32.5864 10.0156 36.9711 12.9032 40.0959L14.1885 38.9082ZM10 27.7734H11.75C11.75 20.0546 17.1545 14.2209 23.3331 14.2207L23.333 12.4707L23.333 10.7207C14.7842 10.7209 8.25 18.59 8.25 27.7734H10ZM23.333 12.4707V14.2207C25.9722 14.2207 28.4293 15.2563 30.4104 17.0502L31.585 15.7529L32.7596 14.4557C30.2007 12.1387 26.9254 10.7207 23.333 10.7207V12.4707ZM31.585 15.7529L30.5214 17.1427C31.6443 18.0019 32.7045 19.3236 33.5295 20.6021L35 19.6533L36.4705 18.7045C35.5421 17.2657 34.2251 15.5696 32.6485 14.3632L31.585 15.7529ZM35 19.6533L36.4705 20.6021C37.2955 19.3236 38.3557 18.0019 39.4786 17.1427L38.415 15.7529L37.3515 14.3632C35.7749 15.5696 34.4579 17.2657 33.5295 18.7045L35 19.6533ZM38.415 15.7529L39.5896 17.0502C41.5707 15.2563 44.0278 14.2207 46.667 14.2207V12.4707V10.7207C43.0746 10.7207 39.7993 12.1387 37.2404 14.4557L38.415 15.7529Z" fill="#9B8968"/>
</svg>
